# xmcd
#
# Track frame offsets: 
#        150
#        16270
#        31080
#        46510
#        61195
#        75920
#        89200
#        103783
#        119908
#        134338
#        147788
#        163710
#        180240
#        194313
#        209045
#        224508
#        238725
#        253550
#        268430
#        283208
#
# Disc length: 3984 seconds
#
# Revision: 2
# Processed by: cddbd v1.5.2PL0 Copyright (c) Steve Scherf et al.
# Submitted via: ExactAudioCopyFreeDBPlugin 1.0
#
DISCID=2c0f8e14
DTITLE=Mississippi Sheiks - Stop and Listen
DYEAR=1992
DGENRE=Blues
TTITLE0=Stop And Listen Blues
TTITLE1=Lonely One In This Town
TTITLE2=The World Is Going Wrong
TTITLE3=She Ain't No Good
TTITLE4=Sitting On Top Of The World
TTITLE5=Too Long
TTITLE6=That's It
TTITLE7=Bootleggers' Blues
TTITLE8=Somebody's Got To Help You
TTITLE9=Jail Bird Love Song
TTITLE10=Shooting High Dice
TTITLE11=Tell Me To Do Right
TTITLE12=Sales Tax
TTITLE13=Livin' In A Strain
TTITLE14=Sweet Maggie
TTITLE15=She's Crazy About Her Lovin'
TTITLE16=Please Baby
TTITLE17=I've Got Blood In My Eyes For You
TTITLE18=Kind Treatment
TTITLE19=He Calls That Religion
EXTD=
EXTT0=
EXTT1=
EXTT2=
EXTT3=
EXTT4=
EXTT5=
EXTT6=
EXTT7=
EXTT8=
EXTT9=
EXTT10=
EXTT11=
EXTT12=
EXTT13=
EXTT14=
EXTT15=
EXTT16=
EXTT17=
EXTT18=
EXTT19=
PLAYORDER=
